Coordinates
version=1
nRows=17
nColumns=24
inDegrees=yes

Units are S.I. units (second, meters, Newtons, ...)
Angles are in degrees.

endheader
time	pelvis_tilt	pelvis_list	pelvis_rotation	pelvis_tx	pelvis_ty	pelvis_tz	hip_flexion_r	hip_adduction_r	hip_rotation_r	knee_angle_r	ankle_angle_r	subtalar_angle_r	mtp_angle_r	hip_flexion_l	hip_adduction_l	hip_rotation_l	knee_angle_l	ankle_angle_l	subtalar_angle_l	mtp_angle_l	lumbar_extension	lumbar_bending	lumbar_rotation
      4.63000000	     -5.49265252	      0.06483209	      3.80396417	      0.85693452	      0.69208089	     -0.06339822	      7.95220449	      4.64374068	     -1.12166634	    -14.09711609	      5.24207657	    -13.28632521	      0.00000000	     26.51022147	     -2.01372098	     -8.79125737	    -58.76103114	     -1.27241792	    -15.96302837	      0.00000000	    -13.33856670	     -6.02167058	      7.19903544
      4.64000000	     -5.42780292	      0.11305562	      2.59724438	      0.86797154	      0.69391640	     -0.06319131	      6.32986261	      4.43880782	     -1.37458929	    -12.92362821	      5.56421676	    -10.69767648	      0.00000000	     27.74282838	     -2.09372719	     -9.67728491	    -56.07056153	      0.02658442	    -15.83676001	      0.00000000	    -13.51627251	     -6.16538968	      8.10179518
      4.65000000	     -5.32915093	      0.01804575	      1.34638333	      0.87900972	      0.69520774	     -0.06294007	      4.65934725	      4.37072728	     -1.52401411	    -11.71636531	      5.85655881	     -8.26262311	      0.00000000	     28.73917817	     -2.39353452	    -10.54786163	    -52.94167759	      0.96463313	    -16.04929769	      0.00000000	    -13.74341268	     -6.16403054	      9.04098089
      4.66000000	     -5.22096425	     -0.22244911	      0.06456058	      0.89009513	      0.69592066	     -0.06266540	      2.94722866	      4.43722479	     -1.56003806	    -10.46709196	      6.12719884	     -6.00281834	      0.00000000	     29.50486370	     -2.89180899	    -11.37466280	    -49.37984612	      1.61087872	    -16.43801277	      0.00000000	    -13.98853937	     -6.01141535	     10.01283770
      4.67000000	     -5.11606160	     -0.59668882	     -1.23521061	      0.90130118	      0.69603975	     -0.06236017	      1.15925436	      4.63278924	     -1.36277952	     -9.12766296	      6.36845899	     -4.06011662	      0.00000000	     30.02964870	     -3.55747392	    -12.14301271	    -45.38485216	      2.05093651	    -16.84414244	      0.00000000	    -14.22845671	     -5.72762861	     10.96038818
      4.68000000	     -5.03653528	     -1.10002723	     -2.48480382	      0.91267514	      0.69554480	     -0.06212660	     -0.68623859	      4.93335455	     -1.07605070	     -7.71573088	      6.60436136	     -2.34915653	      0.00000000	     30.33023173	     -4.31057489	    -12.72613344	    -40.95343028	      2.33337490	    -17.11968089	      0.00000000	    -14.43764390	     -5.28554265	     11.99084155
      4.69000000	     -4.95059528	     -1.66821457	     -3.64029903	      0.92433696	      0.69446112	     -0.06197111	     -2.64358388	      5.25963736	     -0.93254331	     -6.20905522	      6.85872213	     -0.60221065	      0.00000000	     30.36279170	     -5.07249213	    -13.16389729	    -36.09722948	      2.59199432	    -17.25905465	      0.00000000	    -14.63307526	     -4.77368508	     12.81641996
      4.70000000	     -4.95050999	     -2.33727034	     -4.72834722	      0.93625497	      0.69267348	     -0.06184395	     -4.64185681	      5.68158137	     -0.54518094	     -4.59549596	      7.12258755	      0.73239703	      0.00000000	     30.26082581	     -5.88774873	    -13.39843347	    -30.89883733	      2.76669927	    -17.04880317	      0.00000000	    -14.70343844	     -4.13577920	     13.65747257
      4.71000000	     -5.00382919	     -3.06170666	     -5.73946148	      0.94846250	      0.69020898	     -0.06174339	     -6.68324007	      6.14106877	     -0.08845398	     -2.93876047	      7.40165502	      1.80724196	      0.00000000	     30.01996559	     -6.71724911	    -13.44746703	    -25.44532244	      2.88261241	    -16.48170358	      0.00000000	    -14.67620884	     -3.42794224	     14.42985111
      4.72000000	     -5.20047719	     -3.85890173	     -6.68611185	      0.96096690	      0.68695194	     -0.06165480	     -8.69530008	      6.66604391	      0.49094580	     -1.20712649	      7.68989444	      2.71005409	      0.00000000	     29.83158793	     -7.62106450	    -13.35242319	    -19.97397434	      2.95197086	    -15.64397086	      0.00000000	    -14.42795600	     -2.60268462	     15.12401497
      4.73000000	     -5.18552116	     -4.49902580	     -7.60997075	      0.97377561	      0.68332235	     -0.06154383	    -10.90886925	      6.96286601	      1.01444853	      0.38761823	      8.12042911	      3.37989929	      0.00000000	     29.29383442	     -8.38066282	    -13.33854082	    -14.54010108	      2.96767765	    -14.04351813	      0.00000000	    -14.38354982	     -2.01140176	     15.71795271
      4.74000000	     -5.29061339	     -5.17738562	     -8.58780116	      0.98675600	      0.67904718	     -0.06136061	    -12.97545491	      7.26218185	      1.76092357	      1.81808736	      8.62463632	      3.85534547	      0.00000000	     28.93128457	     -9.27615395	    -13.44032956	     -9.62574073	      3.02727493	    -12.00536155	      0.00000000	    -14.16168511	     -1.37283905	     16.37528423
      4.75000000	     -5.42918300	     -5.80234802	     -9.60019085	      0.99983356	      0.67435202	     -0.06115857	    -14.90381326	      7.45154457	      2.69505549	      2.98543076	      9.23271798	      4.03626417	      0.00000000	     28.73183346	    -10.20717216	    -13.84294656	     -5.50613889	      3.18209330	     -9.27574698	      0.00000000	    -13.90209373	     -0.79384420	     16.91990210
      4.76000000	     -5.55191628	     -6.28038073	    -10.72978085	      1.01299767	      0.66946577	     -0.06095924	    -16.63264020	      7.40107202	      3.64953742	      3.74629042	     10.01595762	      4.19661040	      0.00000000	     28.53708574	    -11.03850582	    -14.05512159	     -2.13979553	      3.14617033	     -7.10869977	      0.00000000	    -13.65268027	     -0.40829095	     17.57388995
      4.77000000	     -5.73697271	     -6.70215477	    -11.92826161	      1.02618409	      0.66446243	     -0.06081054	    -18.00686098	      7.24359985	      4.54868994	      3.96241531	     11.01289217	      4.38294454	      0.00000000	     28.43807066	    -11.86119207	    -13.80444259	      0.34596497	      2.90562178	     -5.98865990	      0.00000000	    -13.36626072	     -0.08281541	     18.20758797
      4.78000000	     -5.76406440	     -6.90048528	    -13.13747832	      1.03952930	      0.65966743	     -0.06077722	    -19.28494838	      6.76606239	      5.44737308	      3.79349468	     12.04776495	      4.49117458	      0.00000000	     28.25418651	    -12.47499743	    -13.65520307	      1.79629908	      2.69029397	     -5.36949727	      0.00000000	    -13.25218083	     -0.06509169	     18.73988914
      4.79000000	     -5.61014335	     -6.90341323	    -14.23698962	      1.05311966	      0.65517230	     -0.06096735	    -20.49712726	      6.02894342	      6.31417228	      3.26956981	     13.00162424	      4.38268516	      0.00000000	     27.95954546	    -12.81201179	    -13.27216336	      2.25974601	      2.22913374	     -5.86394197	      0.00000000	    -13.30307950	     -0.31416625	     19.05504482
